<?xml version="1.0" encoding="UTF-8" standalone="no"?>
<!-- Created with Inkscape (http://www.inkscape.org/) -->

<svg
   xmlns:dc="http://purl.org/dc/elements/1.1/"
   xmlns:cc="http://creativecommons.org/ns#"
   xmlns:rdf="http://www.w3.org/1999/02/22-rdf-syntax-ns#"
   xmlns:svg="http://www.w3.org/2000/svg"
   xmlns="http://www.w3.org/2000/svg"
   xmlns:xlink="http://www.w3.org/1999/xlink"
   xmlns:sodipodi="http://sodipodi.sourceforge.net/DTD/sodipodi-0.dtd"
   xmlns:inkscape="http://www.inkscape.org/namespaces/inkscape"
   width="134.97473mm"
   height="145.52083mm"
   viewBox="0 0 134.97473 145.52083"
   version="1.1"
   id="svg4833"
   inkscape:version="0.92.2 (5c3e80d, 2017-08-06)"
   sodipodi:docname="Zeichnung7.svg"
   style="shape-rendering:crispEdges">
  <defs
     id="defs4827">
    <linearGradient
       inkscape:collect="always"
       id="linearGradient883">
      <stop
         style="stop-color:#ffffff;stop-opacity:1"
         offset="0"
         id="stop879" />
      <stop
         id="stop887"
         offset="0.46809387"
         style="stop-color:#1c1c1c;stop-opacity:1" />
      <stop
         style="stop-color:#fefefe;stop-opacity:1"
         offset="1"
         id="stop881" />
    </linearGradient>
    <linearGradient
       inkscape:collect="always"
       id="linearGradient866">
      <stop
         style="stop-color:#9ae5f7;stop-opacity:1;"
         offset="0"
         id="stop862" />
      <stop
         id="stop870"
         offset="0.4686358"
         style="stop-color:#064251;stop-opacity:1" />
      <stop
         style="stop-color:#9ae5f7;stop-opacity:1"
         offset="1"
         id="stop864" />
    </linearGradient>
    <linearGradient
       inkscape:collect="always"
       id="linearGradient842">
      <stop
         style="stop-color:#9cecff;stop-opacity:1"
         offset="0"
         id="stop838" />
      <stop
         id="stop848"
         offset="0.62728435"
         style="stop-color:#00a7d0;stop-opacity:1" />
      <stop
         style="stop-color:#00504e;stop-opacity:1"
         offset="1"
         id="stop840" />
    </linearGradient>
    <linearGradient
       inkscape:collect="always"
       id="linearGradient830">
      <stop
         style="stop-color:#ffffff;stop-opacity:1"
         offset="0"
         id="stop826" />
      <stop
         id="stop836"
         offset="0.37272695"
         style="stop-color:#d5d5d5;stop-opacity:0.99607843" />
      <stop
         id="stop834"
         offset="0.74545395"
         style="stop-color:#565656;stop-opacity:1" />
      <stop
         style="stop-color:#000000;stop-opacity:0.99710983"
         offset="1"
         id="stop828" />
    </linearGradient>
    <radialGradient
       inkscape:collect="always"
       xlink:href="#linearGradient830"
       id="radialGradient832"
       cx="-363.53748"
       cy="71.442665"
       fx="-363.53748"
       fy="71.442665"
       r="72.760414"
       gradientTransform="rotate(50.063617,-364.46353,88.508294)"
       gradientUnits="userSpaceOnUse" />
    <radialGradient
       inkscape:collect="always"
       xlink:href="#linearGradient842"
       id="radialGradient846"
       cx="-367.15271"
       cy="80.929665"
       fx="-367.15271"
       fy="80.929665"
       r="38.593853"
       gradientUnits="userSpaceOnUse"
       gradientTransform="matrix(1.082267,0,0,1.082267,228.34876,240.48233)" />
    <linearGradient
       inkscape:collect="always"
       xlink:href="#linearGradient866"
       id="linearGradient868"
       x1="-421.7644"
       y1="82.108459"
       x2="-318.27509"
       y2="82.108459"
       gradientUnits="userSpaceOnUse" />
    <linearGradient
       inkscape:collect="always"
       xlink:href="#linearGradient883"
       id="linearGradient885"
       x1="-1629.3262"
       y1="310.33102"
       x2="-1124.457"
       y2="310.33102"
       gradientUnits="userSpaceOnUse" />
  </defs>
  <sodipodi:namedview
     id="base"
     pagecolor="#ffffff"
     bordercolor="#666666"
     borderopacity="1.0"
     inkscape:pageopacity="0.0"
     inkscape:pageshadow="2"
     inkscape:zoom="1"
     inkscape:cx="307.41467"
     inkscape:cy="252.18291"
     inkscape:document-units="mm"
     inkscape:current-layer="layer1"
     showgrid="false"
     showborder="false"
     inkscape:window-width="2481"
     inkscape:window-height="1411"
     inkscape:window-x="70"
     inkscape:window-y="-9"
     inkscape:window-maximized="1"
     objecttolerance="1"
     gridtolerance="1"
     guidetolerance="1"
     fit-margin-top="0"
     fit-margin-left="0"
     fit-margin-right="0"
     fit-margin-bottom="0" />
  <metadata
     id="metadata4830">
    <rdf:RDF>
      <cc:Work
         rdf:about="">
        <dc:format>image/svg+xml</dc:format>
        <dc:type
           rdf:resource="http://purl.org/dc/dcmitype/StillImage" />
        <dc:title></dc:title>
      </cc:Work>
    </rdf:RDF>
  </metadata>
  <g
     inkscape:label="Ebene 1"
     inkscape:groupmode="layer"
     id="layer1"
     transform="translate(431.95088,-15.747876)">
    <circle
       style="opacity:1;fill:url(#radialGradient846);fill-opacity:1;stroke:none;stroke-width:143.92059326;stroke-linejoin:round;stroke-miterlimit:4;stroke-dasharray:none;stroke-opacity:1"
       id="path824"
       cx="-166.09808"
       cy="336.27191"
       r="38.593853"
       transform="rotate(50.063617)" />
    <path
       inkscape:connector-curvature="0"
       id="path872"
       d="m -336.17748,65.873759 a 36.89047,34.641511 0 0 0 -51.9674,-4.323987 36.89047,34.641511 0 0 0 -10.53561,13.694023 30.778931,14.488494 18.268072 0 1 13.91744,3.057013 30.778931,14.488494 18.268072 0 1 20.3921,12.444404 30.778931,14.488494 18.268072 0 1 3.45798,11.055628 30.778931,14.488494 18.268072 0 1 -34.36489,3.53471 30.778931,14.488494 18.268072 0 1 -1.50808,-0.54551 36.89047,34.641511 0 0 0 4.03635,5.55903 36.89047,34.641511 0 0 0 51.9674,4.324 36.89047,34.641511 0 0 0 10.53561,-13.69404 30.778931,14.488494 18.268072 0 1 -13.91744,-3.057012 30.778931,14.488494 18.268072 0 1 -23.85009,-23.500037 30.778931,14.488494 18.268072 0 1 34.3649,-3.534707 30.778931,14.488494 18.268072 0 1 1.50791,0.545334 36.89047,34.641511 0 0 0 -4.03618,-5.558849 z"
       style="color:#000000;clip-rule:nonzero;display:inline;overflow:visible;visibility:visible;opacity:0.37999998;isolation:auto;mix-blend-mode:normal;color-interpolation:sRGB;color-interpolation-filters:linearRGB;solid-color:#000000;solid-opacity:1;fill:#000000;fill-opacity:1;fill-rule:nonzero;stroke:none;stroke-width:3.24984622;stroke-linecap:round;stroke-linejoin:round;stroke-miterlimit:4;stroke-dasharray:none;stroke-dashoffset:0;stroke-opacity:1;color-rendering:auto;image-rendering:auto;shape-rendering:auto;text-rendering:auto;enable-background:accumulate" />
    <path
       style="color:#000000;clip-rule:nonzero;display:inline;overflow:visible;visibility:visible;opacity:1;isolation:auto;mix-blend-mode:normal;color-interpolation:sRGB;color-interpolation-filters:linearRGB;solid-color:#000000;solid-opacity:1;fill:url(#linearGradient868);fill-opacity:1;fill-rule:nonzero;stroke:none;stroke-width:3.51174212;stroke-linecap:round;stroke-linejoin:round;stroke-miterlimit:4;stroke-dasharray:none;stroke-dashoffset:0;stroke-opacity:1;color-rendering:auto;image-rendering:auto;shape-rendering:auto;text-rendering:auto;enable-background:accumulate"
       d="m -300.71322,53.476418 -24.72118,-22.833627 -9.05136,-2.774147 c 0,0 -10.62952,-4.040917 -11.12018,-3.802661 -0.49067,0.238258 -10.66254,3.750761 -11.16972,4.175375 -0.50718,0.424614 -7.35526,5.640297 -7.35526,5.640297 0,0 -7.40244,7.232598 -7.21373,8.282338 0.18873,1.049748 -1.08512,6.947164 -0.49066,7.657212 0.0677,0.08092 0.39327,0.476441 0.58401,0.708008 a 38.629164,38.629164 0 0 0 -18.0097,8.359851 38.629164,38.629164 0 0 0 -3.76642,3.693798 c 0.18132,-0.999029 0.28941,-1.741701 0.22332,-1.820646 -0.24019,-0.286898 -16.2997,-15.389303 -16.2997,-15.389303 l -13.60795,4.438795 -9.23912,11.669645 31.65777,12.677864 a 32.448537,16.047275 20.063617 0 1 14.57322,3.409426 32.448537,16.047275 20.063617 0 1 21.35305,13.876678 32.448537,16.047275 20.063617 0 1 3.6215,12.328279 32.448537,16.047275 20.063617 0 1 -35.98473,3.94136 32.448537,16.047275 20.063617 0 1 -1.57929,-0.60802 l -29.90482,16.43282 5.14513,5.99259 c 0,0 28.07527,10.65538 29.27292,10.62868 1.19766,-0.0267 28.69678,-0.11311 29.40236,-0.58183 0.70556,-0.46875 7.20764,-6.40025 7.20764,-6.40025 l -0.60927,-6.6703 a 38.629164,38.629164 0 0 0 18.12935,-8.38117 38.629164,38.629164 0 0 0 0.016,-0.0147 c 3.0191,3.70822 6.47237,7.86773 6.47237,7.86773 l 25.16548,-2.09004 11.03604,-8.35525 -31.65776,-12.67786 a 32.448537,16.047275 20.063617 0 1 -14.57323,-3.409431 32.448537,16.047275 20.063617 0 1 -24.97455,-26.204957 32.448537,16.047275 20.063617 0 1 35.98473,-3.941362 32.448537,16.047275 20.063617 0 1 1.57929,0.608023 z"
       id="path5394"
       inkscape:connector-curvature="0" />
    <path
       style="color:#000000;clip-rule:nonzero;display:inline;overflow:visible;visibility:visible;opacity:1;isolation:auto;mix-blend-mode:normal;color-interpolation:sRGB;color-interpolation-filters:linearRGB;solid-color:#000000;solid-opacity:1;fill:url(#linearGradient885);fill-opacity:1;fill-rule:nonzero;stroke:none;stroke-width:24.19146729;stroke-linecap:round;stroke-linejoin:round;stroke-miterlimit:4;stroke-dasharray:none;stroke-dashoffset:0;stroke-opacity:1;color-rendering:auto;image-rendering:auto;shape-rendering:auto;text-rendering:auto;enable-background:accumulate"
       d="m -1305.9434,90.919922 c -0.1304,-0.0025 -0.2252,0.01092 -0.2832,0.03906 -1.8545,0.900503 -40.2999,14.174458 -42.2168,15.779298 -1.9169,1.60484 -27.7988,21.31836 -27.7988,21.31836 0,0 -27.9788,27.33521 -27.2656,31.30274 0.7133,3.96755 -4.1003,26.25776 -1.8535,28.9414 0.2558,0.30584 1.4861,1.80057 2.207,2.67578 a 145.99999,145.99999 0 0 0 -68.0684,31.59571 145.99999,145.99999 0 0 0 -14.2343,13.96093 c 0.6853,-3.77585 1.0935,-6.58248 0.8437,-6.88086 -0.9078,-1.08434 -61.6055,-58.16406 -61.6055,-58.16406 l -51.4316,16.77734 -24.9512,31.51368 a 274.99999,257.49998 0 0 0 -6.7246,13.89062 l 27.0625,10.83789 a 229.37752,107.72705 18.191988 0 1 73.4414,18.58594 229.37752,107.72705 18.191988 0 1 65.8379,28.31445 122.64014,60.651118 20.063617 0 1 5.1446,1.76368 122.64014,60.651118 20.063617 0 1 80.705,52.44726 122.64014,60.651118 20.063617 0 1 14.9082,29.57813 229.37752,107.72705 18.191988 0 1 11.1934,62.58007 229.37752,107.72705 18.191988 0 1 -256.1719,26.27344 229.37752,107.72705 18.191988 0 1 -3.6328,-1.31055 l -4.2676,2.34571 a 274.99999,257.49998 0 0 0 17.7422,25.10351 c 4.97,1.88517 104.5848,39.65117 109,39.55274 4.5266,-0.10092 108.4602,-0.42768 111.127,-2.19922 2.6667,-1.77165 27.2422,-24.18945 27.2422,-24.18945 l -2.3028,-25.21094 a 145.99999,145.99999 0 0 0 68.5196,-31.67578 145.99999,145.99999 0 0 0 0.061,-0.0566 c 11.4108,14.01532 24.4629,29.73632 24.4629,29.73632 l 95.1133,-7.89843 37.8886,-28.6875 a 274.99999,257.49998 0 0 0 1.795,-3.70508 l -15.8575,-6.34961 a 229.37752,107.72705 18.191988 0 1 -85.8632,-20.56055 229.37752,107.72705 18.191988 0 1 -83.1504,-37.91406 122.64014,60.651118 20.063617 0 1 -82.3067,-72.20898 229.37752,107.72705 18.191988 0 1 -12.332,-64.56055 229.37752,107.72705 18.191988 0 1 256.1719,-26.27344 229.37752,107.72705 18.191988 0 1 0.334,0.1211 l 6.1171,-3.36329 a 274.99999,257.49998 0 0 0 -13.7519,-19.75586 l -63.8613,-58.98632 a 274.99999,257.49998 0 0 0 -23.7891,-14.09961 l -21.4512,-6.57422 c 0,0 -37.7036,-14.333024 -41.7461,-14.41016 z"
       id="path874"
       transform="scale(0.26458333)"
       inkscape:connector-curvature="0" />
    <path
       style="color:#000000;clip-rule:nonzero;display:inline;overflow:visible;visibility:visible;opacity:1;isolation:auto;mix-blend-mode:normal;color-interpolation:sRGB;color-interpolation-filters:linearRGB;solid-color:#000000;solid-opacity:1;fill:url(#radialGradient832);fill-opacity:1;fill-rule:nonzero;stroke:none;stroke-width:6.61458254;stroke-linecap:round;stroke-linejoin:round;stroke-miterlimit:4;stroke-dasharray:none;stroke-dashoffset:0;stroke-opacity:1;color-rendering:auto;image-rendering:auto;shape-rendering:auto;text-rendering:auto;enable-background:accumulate"
       d="m -308.67393,41.80071 a 72.760413,72.760413 0 0 0 -102.49718,-9.082025 72.760413,72.760413 0 0 0 -20.77977,28.762681 61.118818,30.226031 20.063617 0 1 27.44987,6.420897 61.118818,30.226031 20.063617 0 1 40.22008,26.138002 61.118818,30.226031 20.063617 0 1 6.82031,23.221065 61.118818,30.226031 20.063617 0 1 -67.77914,7.42424 61.118818,30.226031 20.063617 0 1 -2.97442,-1.1458 72.760413,72.760413 0 0 0 7.96103,11.6761 72.760413,72.760413 0 0 0 102.49719,9.08203 72.760413,72.760413 0 0 0 20.77977,-28.76269 61.118818,30.226031 20.063617 0 1 -27.44987,-6.42091 61.118818,30.226031 20.063617 0 1 -47.0404,-49.359058 61.118818,30.226031 20.063617 0 1 67.77915,-7.424234 61.118818,30.226031 20.063617 0 1 2.97409,1.14541 72.760413,72.760413 0 0 0 -7.96071,-11.675708 z"
       id="path5386"
       inkscape:connector-curvature="0" />
  </g>
</svg>
